<svg width="196" height="62" viewBox="0 0 196 62" fill="none" xmlns="http://www.w3.org/2000/svg">
<path d="M72.3557 34.6057L68.7362 35.0006C68.6338 34.635 68.4546 34.2913 68.1987 33.9696C67.9501 33.6478 67.6137 33.3882 67.1896 33.1908C66.7655 32.9934 66.2463 32.8947 65.6321 32.8947C64.8058 32.8947 64.1112 33.0738 63.5481 33.4321C62.9924 33.7904 62.7182 34.2547 62.7255 34.8251C62.7182 35.315 62.8973 35.7135 63.2629 36.0207C63.6359 36.3278 64.2501 36.58 65.1056 36.7775L67.9793 37.3917C69.5734 37.7354 70.758 38.2801 71.5331 39.026C72.3155 39.7718 72.7104 40.748 72.7177 41.9545C72.7104 43.0148 72.3996 43.9508 71.7854 44.7625C71.1785 45.5668 70.3339 46.1957 69.2517 46.649C68.1695 47.1024 66.9264 47.3291 65.5224 47.3291C63.4604 47.3291 61.8005 46.8976 60.5428 46.0348C59.2851 45.1646 58.5356 43.9544 58.2943 42.4042L62.1661 42.0313C62.3416 42.7918 62.7145 43.3658 63.2849 43.7534C63.8552 44.1409 64.5974 44.3347 65.5115 44.3347C66.4547 44.3347 67.2116 44.1409 67.7819 43.7534C68.3596 43.3658 68.6484 42.8869 68.6484 42.3165C68.6484 41.8339 68.462 41.4354 68.089 41.1209C67.7234 40.8065 67.1531 40.5652 66.378 40.397L63.5042 39.7938C61.8882 39.4574 60.6927 38.8907 59.9176 38.0937C59.1425 37.2893 58.7586 36.2729 58.7659 35.0445C58.7586 34.0061 59.0401 33.1067 59.6105 32.3462C60.1881 31.5785 60.9888 30.9862 62.0125 30.5694C63.0436 30.1453 64.2318 29.9332 65.5773 29.9332C67.5516 29.9332 69.1054 30.3537 70.2388 31.1946C71.3795 32.0355 72.0852 33.1725 72.3557 34.6057ZM83.3406 47.3291C81.6953 47.3291 80.2694 46.9671 79.0629 46.2432C77.8564 45.5193 76.9204 44.5065 76.255 43.2049C75.5969 41.9034 75.2678 40.3824 75.2678 38.6421C75.2678 36.9018 75.5969 35.3772 76.255 34.0683C76.9204 32.7594 77.8564 31.743 79.0629 31.0191C80.2694 30.2952 81.6953 29.9332 83.3406 29.9332C84.9858 29.9332 86.4117 30.2952 87.6182 31.0191C88.8248 31.743 89.7571 32.7594 90.4152 34.0683C91.0806 35.3772 91.4133 36.9018 91.4133 38.6421C91.4133 40.3824 91.0806 41.9034 90.4152 43.2049C89.7571 44.5065 88.8248 45.5193 87.6182 46.2432C86.4117 46.9671 84.9858 47.3291 83.3406 47.3291ZM83.3625 44.1482C84.2546 44.1482 85.0004 43.9033 85.6001 43.4133C86.1997 42.9161 86.6457 42.2507 86.9382 41.4171C87.238 40.5835 87.3879 39.6548 87.3879 38.6311C87.3879 37.6001 87.238 36.6678 86.9382 35.8342C86.6457 34.9933 86.1997 34.3242 85.6001 33.827C85.0004 33.3297 84.2546 33.0811 83.3625 33.0811C82.4485 33.0811 81.688 33.3297 81.0811 33.827C80.4815 34.3242 80.0318 34.9933 79.732 35.8342C79.4395 36.6678 79.2932 37.6001 79.2932 38.6311C79.2932 39.6548 79.4395 40.5835 79.732 41.4171C80.0318 42.2507 80.4815 42.9161 81.0811 43.4133C81.688 43.9033 82.4485 44.1482 83.3625 44.1482ZM105.521 39.9144V30.1526H109.492V47H105.642V44.0056H105.467C105.086 44.9489 104.461 45.7204 103.591 46.32C102.728 46.9196 101.664 47.2194 100.399 47.2194C99.295 47.2194 98.3188 46.9744 97.4706 46.4845C96.6297 45.9873 95.9716 45.267 95.4963 44.3237C95.021 43.3731 94.7833 42.2251 94.7833 40.8796V30.1526H98.7539V40.2654C98.7539 41.333 99.0464 42.1812 99.6314 42.8101C100.216 43.4389 100.984 43.7534 101.935 43.7534C102.52 43.7534 103.086 43.6108 103.635 43.3256C104.183 43.0404 104.633 42.6163 104.984 42.0533C105.342 41.4829 105.521 40.77 105.521 39.9144ZM117.545 37.1285V47H113.575V30.1526H117.37V33.0153H117.567C117.955 32.072 118.573 31.3225 119.421 30.7668C120.277 30.2111 121.333 29.9332 122.591 29.9332C123.754 29.9332 124.766 30.1818 125.629 30.6791C126.499 31.1763 127.172 31.8965 127.647 32.8398C128.13 33.7831 128.368 34.9275 128.36 36.2729V47H124.39V36.8872C124.39 35.7611 124.097 34.8799 123.512 34.2438C122.935 33.6076 122.134 33.2895 121.11 33.2895C120.416 33.2895 119.798 33.4431 119.257 33.7502C118.723 34.05 118.302 34.4851 117.995 35.0554C117.695 35.6258 117.545 36.3168 117.545 37.1285ZM138.649 47.2961C137.325 47.2961 136.141 46.9561 135.095 46.2761C134.049 45.596 133.223 44.6089 132.616 43.3146C132.009 42.0204 131.706 40.4482 131.706 38.5982C131.706 36.7263 132.013 35.1468 132.627 33.8599C133.249 32.5656 134.086 31.5894 135.139 30.9313C136.192 30.2659 137.365 29.9332 138.66 29.9332C139.647 29.9332 140.458 30.1014 141.095 30.4377C141.731 30.7668 142.235 31.1653 142.608 31.6333C142.981 32.094 143.27 32.5291 143.475 32.9385H143.639V24.5368H147.621V47H143.716V44.3457H143.475C143.27 44.7551 142.974 45.1902 142.586 45.6509C142.199 46.1042 141.687 46.4918 141.051 46.8135C140.415 47.1353 139.614 47.2961 138.649 47.2961ZM139.756 44.0385C140.597 44.0385 141.314 43.8119 141.906 43.3585C142.499 42.8978 142.948 42.258 143.255 41.439C143.562 40.6201 143.716 39.6658 143.716 38.5763C143.716 37.4868 143.562 36.5398 143.255 35.7355C142.956 34.9311 142.509 34.3059 141.917 33.8599C141.332 33.4138 140.612 33.1908 139.756 33.1908C138.872 33.1908 138.133 33.4211 137.541 33.8818C136.949 34.3425 136.502 34.9787 136.203 35.7903C135.903 36.602 135.753 37.5306 135.753 38.5763C135.753 39.6292 135.903 40.5689 136.203 41.3952C136.51 42.2141 136.959 42.8613 137.552 43.3366C138.151 43.8045 138.886 44.0385 139.756 44.0385ZM155.822 24.5368V47H151.852V24.5368H155.822ZM164.753 47.34C163.686 47.34 162.724 47.1499 161.869 46.7697C161.02 46.3821 160.348 45.8118 159.85 45.0586C159.361 44.3054 159.116 43.3768 159.116 42.2726C159.116 41.322 159.291 40.536 159.642 39.9144C159.993 39.2929 160.472 38.7957 161.079 38.4227C161.686 38.0498 162.37 37.7683 163.13 37.5782C163.898 37.3807 164.691 37.2381 165.51 37.1504C166.497 37.048 167.298 36.9566 167.912 36.8762C168.526 36.7884 168.973 36.6568 169.25 36.4813C169.536 36.2985 169.678 36.017 169.678 35.6368V35.5709C169.678 34.7447 169.433 34.1048 168.943 33.6515C168.453 33.1981 167.748 32.9714 166.826 32.9714C165.854 32.9714 165.082 33.1835 164.512 33.6076C163.949 34.0317 163.569 34.5326 163.371 35.1103L159.664 34.5838C159.957 33.5601 160.439 32.7045 161.112 32.0172C161.785 31.3225 162.607 30.8034 163.58 30.4597C164.552 30.1087 165.627 29.9332 166.804 29.9332C167.616 29.9332 168.424 30.0283 169.228 30.2184C170.033 30.4085 170.768 30.7229 171.433 31.1617C172.099 31.5931 172.632 32.1817 173.034 32.9276C173.444 33.6734 173.649 34.6057 173.649 35.7245V47H169.832V44.6857H169.7C169.459 45.1537 169.119 45.5924 168.68 46.0019C168.249 46.4041 167.704 46.7294 167.046 46.9781C166.395 47.2194 165.631 47.34 164.753 47.34ZM165.784 44.4224C166.581 44.4224 167.272 44.2652 167.857 43.9508C168.442 43.6291 168.892 43.2049 169.207 42.6785C169.528 42.152 169.689 41.578 169.689 40.9564V38.9711C169.565 39.0735 169.353 39.1686 169.053 39.2563C168.76 39.3441 168.431 39.4208 168.066 39.4867C167.7 39.5525 167.338 39.611 166.98 39.6622C166.622 39.7133 166.311 39.7572 166.048 39.7938C165.455 39.8742 164.925 40.0058 164.457 40.1886C163.989 40.3714 163.62 40.6274 163.349 40.9564C163.079 41.2782 162.944 41.695 162.944 42.2068C162.944 42.938 163.21 43.4901 163.744 43.863C164.278 44.236 164.958 44.4224 165.784 44.4224ZM177.817 47V24.5368H181.787V32.9385H181.952C182.157 32.5291 182.445 32.094 182.818 31.6333C183.191 31.1653 183.696 30.7668 184.332 30.4377C184.968 30.1014 185.78 29.9332 186.767 29.9332C188.068 29.9332 189.242 30.2659 190.288 30.9313C191.341 31.5894 192.174 32.5656 192.789 33.8599C193.41 35.1468 193.721 36.7263 193.721 38.5982C193.721 40.4482 193.417 42.0204 192.81 43.3146C192.204 44.6089 191.377 45.596 190.332 46.2761C189.286 46.9561 188.101 47.2961 186.778 47.2961C185.813 47.2961 185.012 47.1353 184.376 46.8135C183.74 46.4918 183.228 46.1042 182.84 45.6509C182.46 45.1902 182.164 44.7551 181.952 44.3457H181.721V47H177.817ZM181.71 38.5763C181.71 39.6658 181.864 40.6201 182.171 41.439C182.486 42.258 182.935 42.8978 183.52 43.3585C184.113 43.8119 184.829 44.0385 185.67 44.0385C186.548 44.0385 187.282 43.8045 187.875 43.3366C188.467 42.8613 188.913 42.2141 189.213 41.3952C189.52 40.5689 189.674 39.6292 189.674 38.5763C189.674 37.5306 189.524 36.602 189.224 35.7903C188.924 34.9787 188.478 34.3425 187.886 33.8818C187.293 33.4211 186.555 33.1908 185.67 33.1908C184.822 33.1908 184.102 33.4138 183.509 33.8599C182.917 34.3059 182.467 34.9311 182.16 35.7355C181.86 36.5398 181.71 37.4868 181.71 38.5763Z" fill="black"/>
<circle cx="24" cy="38" r="24" fill="#161929"/>
<path d="M14.523 49.4615V41.2004H15.0768C15.8768 43.8772 16.9537 45.754 18.3074 46.8309C19.6612 47.9077 21.3534 48.4462 23.3841 48.4462C26.5224 48.4462 28.0916 47.4462 28.0916 45.4463C28.0916 44.5848 27.707 43.9387 26.9378 43.508C25.7378 42.8311 24.1995 42.308 22.3226 41.9388C20.2304 41.385 18.4767 40.6466 17.0613 39.7235C15.3691 38.6159 14.523 36.8621 14.523 34.4622C14.523 32.0624 15.2614 30.1548 16.7383 28.7394C18.2151 27.2934 20.1843 26.5703 22.6457 26.5703C24.1533 26.5703 25.7071 26.9241 27.307 27.6318C27.8916 27.8779 28.3377 28.001 28.6454 28.001C28.9531 28.001 29.2146 27.8933 29.43 27.678C29.6453 27.4626 29.9069 27.0626 30.2146 26.478H30.7222V33.5392H30.1684C28.5992 29.5394 26.1686 27.5395 22.8764 27.5395C21.4304 27.5395 20.3535 27.801 19.6458 28.3241C18.9382 28.8164 18.5843 29.4471 18.5843 30.2163C18.5843 30.6778 18.692 31.047 18.9074 31.3239C19.1228 31.5701 19.292 31.7547 19.4151 31.8778C19.5381 32.0008 19.7381 32.1393 20.015 32.2931C20.292 32.4162 20.5227 32.5239 20.7073 32.6162C20.8919 32.6777 21.1688 32.77 21.538 32.8931C21.938 33.0162 22.2303 33.0931 22.4149 33.1238C24.5071 33.6469 26.0148 34.1084 26.9378 34.5084C27.8608 34.8776 28.7377 35.3391 29.5684 35.8929C31.2607 37.0621 32.1068 38.9543 32.1068 41.5696C32.1068 44.1541 31.3376 46.1232 29.7992 47.477C28.2608 48.8 26.1532 49.4615 23.4764 49.4615C21.5688 49.4615 19.7228 49.0154 17.9382 48.1231C17.569 47.877 17.2767 47.7539 17.0613 47.7539C16.3845 47.7539 15.7229 48.3231 15.0768 49.4615H14.523Z" fill="white"/>
</svg>
