<svg width="154" height="49" viewBox="0 0 154 49" fill="none" xmlns="http://www.w3.org/2000/svg">
<path d="M56.7409 26.6118L53.9024 26.9214C53.8221 26.6347 53.6816 26.3652 53.4809 26.1129C53.286 25.8606 53.0222 25.657 52.6896 25.5022C52.357 25.3474 51.9499 25.27 51.4682 25.27C50.8203 25.27 50.2755 25.4105 49.834 25.6914C49.3982 25.9724 49.1831 26.3365 49.1889 26.7838C49.1831 27.168 49.3236 27.4805 49.6103 27.7214C49.9028 27.9622 50.3845 28.16 51.0554 28.3148L53.3089 28.7965C54.559 29.066 55.4879 29.4932 56.0958 30.0781C56.7093 30.663 57.019 31.4285 57.0247 32.3747C57.019 33.2061 56.7753 33.9401 56.2936 34.5766C55.8176 35.2074 55.1553 35.7005 54.3067 36.0561C53.458 36.4116 52.4832 36.5893 51.3822 36.5893C49.7652 36.5893 48.4635 36.251 47.4772 35.5744C46.4909 34.892 45.9032 33.943 45.7139 32.7273L48.7502 32.4349C48.8878 33.0313 49.1803 33.4814 49.6275 33.7853C50.0748 34.0892 50.6568 34.2412 51.3736 34.2412C52.1133 34.2412 52.7068 34.0892 53.1541 33.7853C53.6071 33.4814 53.8336 33.1058 53.8336 32.6585C53.8336 32.2801 53.6874 31.9676 53.3949 31.721C53.1082 31.4744 52.661 31.2852 52.0531 31.1533L49.7996 30.6802C48.5323 30.4164 47.5948 29.972 46.9869 29.347C46.3791 28.7162 46.0781 27.9192 46.0838 26.9558C46.0781 26.1416 46.2988 25.4363 46.7461 24.8399C47.1991 24.2378 47.827 23.7733 48.6298 23.4465C49.4383 23.1139 50.3701 22.9476 51.4252 22.9476C52.9735 22.9476 54.192 23.2773 55.0808 23.9368C55.9753 24.5962 56.5287 25.4879 56.7409 26.6118ZM65.3551 36.5893C64.0649 36.5893 62.9467 36.3055 62.0006 35.7378C61.0544 35.1701 60.3204 34.3759 59.7986 33.3552C59.2826 32.3345 59.0245 31.1418 59.0245 29.7771C59.0245 28.4123 59.2826 27.2167 59.7986 26.1903C60.3204 25.1639 61.0544 24.3668 62.0006 23.7991C62.9467 23.2315 64.0649 22.9476 65.3551 22.9476C66.6453 22.9476 67.7635 23.2315 68.7096 23.7991C69.6558 24.3668 70.3869 25.1639 70.903 26.1903C71.4248 27.2167 71.6857 28.4123 71.6857 29.7771C71.6857 31.1418 71.4248 32.3345 70.903 33.3552C70.3869 34.3759 69.6558 35.1701 68.7096 35.7378C67.7635 36.3055 66.6453 36.5893 65.3551 36.5893ZM65.3723 34.0949C66.0719 34.0949 66.6568 33.9029 67.127 33.5187C67.5972 33.1287 67.947 32.6069 68.1763 31.9532C68.4114 31.2995 68.529 30.5713 68.529 29.7685C68.529 28.9599 68.4114 28.2288 68.1763 27.5751C67.947 26.9157 67.5972 26.391 67.127 26.0011C66.6568 25.6112 66.0719 25.4162 65.3723 25.4162C64.6555 25.4162 64.0592 25.6112 63.5832 26.0011C63.113 26.391 62.7604 26.9157 62.5253 27.5751C62.2959 28.2288 62.1812 28.9599 62.1812 29.7685C62.1812 30.5713 62.2959 31.2995 62.5253 31.9532C62.7604 32.6069 63.113 33.1287 63.5832 33.5187C64.0592 33.9029 64.6555 34.0949 65.3723 34.0949ZM82.7492 30.7748V23.1196H85.8629V36.3313H82.8438V33.9831H82.7062C82.408 34.7228 81.9177 35.3278 81.2353 35.798C80.5587 36.2682 79.7244 36.5033 78.7323 36.5033C77.8665 36.5033 77.101 36.3112 76.4358 35.927C75.7763 35.5371 75.2603 34.9723 74.8875 34.2326C74.5148 33.4871 74.3285 32.5868 74.3285 31.5317V23.1196H77.4421V31.0501C77.4421 31.8873 77.6715 32.5524 78.1302 33.0456C78.589 33.5387 79.1911 33.7853 79.9365 33.7853C80.3953 33.7853 80.8397 33.6735 81.2697 33.4498C81.6998 33.2262 82.0525 32.8936 82.3277 32.4521C82.6087 32.0048 82.7492 31.4457 82.7492 30.7748ZM92.1784 28.5901V36.3313H89.0647V23.1196H92.0408V25.3646H92.1956C92.4995 24.6249 92.984 24.0371 93.6492 23.6013C94.3201 23.1655 95.1487 22.9476 96.135 22.9476C97.0467 22.9476 97.8409 23.1426 98.5176 23.5325C99.2 23.9224 99.7275 24.4872 100.1 25.227C100.479 25.9667 100.665 26.8641 100.659 27.9192V36.3313H97.5456V28.4009C97.5456 27.5178 97.3163 26.8268 96.8575 26.3279C96.4045 25.8291 95.7766 25.5796 94.9738 25.5796C94.4291 25.5796 93.9445 25.7 93.5202 25.9409C93.1016 26.176 92.7719 26.5172 92.531 26.9644C92.2959 27.4117 92.1784 27.9536 92.1784 28.5901ZM108.727 36.5635C107.689 36.5635 106.761 36.2969 105.941 35.7636C105.121 35.2303 104.473 34.4562 103.997 33.4412C103.521 32.4263 103.283 31.1934 103.283 29.7427C103.283 28.2747 103.524 27.0361 104.005 26.0269C104.493 25.0119 105.149 24.2464 105.975 23.7303C106.801 23.2085 107.721 22.9476 108.736 22.9476C109.51 22.9476 110.147 23.0795 110.645 23.3433C111.144 23.6013 111.54 23.9138 111.832 24.2808C112.125 24.6421 112.351 24.9833 112.512 25.3044H112.641V18.7157H115.763V36.3313H112.701V34.2498H112.512C112.351 34.5709 112.119 34.9121 111.815 35.2733C111.511 35.6289 111.11 35.9328 110.611 36.1851C110.112 36.4374 109.484 36.5635 108.727 36.5635ZM109.596 34.0089C110.256 34.0089 110.818 33.8312 111.282 33.4757C111.746 33.1144 112.099 32.6127 112.34 31.9704C112.581 31.3282 112.701 30.5799 112.701 29.7255C112.701 28.8711 112.581 28.1285 112.34 27.4977C112.105 26.867 111.755 26.3767 111.291 26.0269C110.832 25.6771 110.267 25.5022 109.596 25.5022C108.902 25.5022 108.323 25.6828 107.859 26.0441C107.394 26.4053 107.044 26.9042 106.809 27.5407C106.574 28.1772 106.457 28.9055 106.457 29.7255C106.457 30.5512 106.574 31.288 106.809 31.936C107.05 32.5782 107.403 33.0857 107.867 33.4585C108.337 33.8254 108.914 34.0089 109.596 34.0089ZM122.195 18.7157V36.3313H119.081V18.7157H122.195ZM129.199 36.5979C128.361 36.5979 127.607 36.4489 126.936 36.1507C126.271 35.8468 125.744 35.3995 125.354 34.8089C124.97 34.2182 124.777 33.49 124.777 32.6241C124.777 31.8787 124.915 31.2622 125.19 30.7748C125.466 30.2874 125.841 29.8975 126.317 29.605C126.793 29.3126 127.329 29.0918 127.926 28.9427C128.528 28.7879 129.15 28.6761 129.792 28.6073C130.566 28.527 131.194 28.4553 131.676 28.3923C132.157 28.3234 132.507 28.2202 132.725 28.0826C132.949 27.9393 133.061 27.7185 133.061 27.4203V27.3687C133.061 26.7207 132.868 26.219 132.484 25.8635C132.1 25.5079 131.547 25.3302 130.824 25.3302C130.062 25.3302 129.457 25.4965 129.009 25.8291C128.568 26.1616 128.27 26.5544 128.115 27.0074L125.208 26.5946C125.437 25.7918 125.815 25.1209 126.343 24.5819C126.87 24.0371 127.516 23.63 128.278 23.3605C129.041 23.0852 129.884 22.9476 130.807 22.9476C131.444 22.9476 132.077 23.0222 132.708 23.1712C133.339 23.3203 133.915 23.5669 134.437 23.911C134.959 24.2493 135.377 24.7109 135.693 25.2958C136.014 25.8807 136.174 26.6118 136.174 27.4891V36.3313H133.181V34.5164H133.078C132.889 34.8834 132.622 35.2275 132.278 35.5486C131.94 35.864 131.512 36.1191 130.996 36.3141C130.486 36.5033 129.887 36.5979 129.199 36.5979ZM130.007 34.31C130.632 34.31 131.174 34.1867 131.633 33.9401C132.091 33.6878 132.444 33.3552 132.691 32.9424C132.943 32.5295 133.069 32.0794 133.069 31.592V30.0351C132.972 30.1154 132.805 30.1899 132.57 30.2588C132.341 30.3276 132.083 30.3878 131.796 30.4394C131.509 30.491 131.226 30.5369 130.945 30.577C130.664 30.6171 130.42 30.6515 130.214 30.6802C129.749 30.7433 129.333 30.8465 128.966 30.9899C128.599 31.1332 128.31 31.3339 128.098 31.592C127.885 31.8443 127.779 32.1711 127.779 32.5725C127.779 33.1459 127.989 33.5789 128.407 33.8713C128.826 34.1638 129.359 34.31 130.007 34.31ZM139.443 36.3313V18.7157H142.556V25.3044H142.685C142.846 24.9833 143.073 24.6421 143.365 24.2808C143.657 23.9138 144.053 23.6013 144.552 23.3433C145.051 23.0795 145.687 22.9476 146.461 22.9476C147.482 22.9476 148.403 23.2085 149.222 23.7303C150.048 24.2464 150.702 25.0119 151.184 26.0269C151.671 27.0361 151.915 28.2747 151.915 29.7427C151.915 31.1934 151.677 32.4263 151.201 33.4412C150.725 34.4562 150.077 35.2303 149.257 35.7636C148.437 36.2969 147.508 36.5635 146.47 36.5635C145.713 36.5635 145.085 36.4374 144.586 36.1851C144.087 35.9328 143.686 35.6289 143.382 35.2733C143.084 34.9121 142.852 34.5709 142.685 34.2498H142.505V36.3313H139.443ZM142.496 29.7255C142.496 30.5799 142.617 31.3282 142.858 31.9704C143.104 32.6127 143.457 33.1144 143.915 33.4757C144.38 33.8312 144.942 34.0089 145.601 34.0089C146.289 34.0089 146.866 33.8254 147.33 33.4585C147.795 33.0857 148.144 32.5782 148.38 31.936C148.62 31.288 148.741 30.5512 148.741 29.7255C148.741 28.9055 148.623 28.1772 148.388 27.5407C148.153 26.9042 147.803 26.4053 147.339 26.0441C146.874 25.6828 146.295 25.5022 145.601 25.5022C144.936 25.5022 144.371 25.6771 143.907 26.0269C143.442 26.3767 143.09 26.867 142.849 27.4977C142.614 28.1285 142.496 28.8711 142.496 29.7255Z" fill="black"/>
<circle cx="18.8207" cy="29.7994" r="18.8207" fill="#161929"/>
<path d="M11.3889 38.3619V31.8836H11.8232C12.4505 33.9827 13.295 35.4545 14.3566 36.299C15.4183 37.1435 16.7453 37.5657 18.3377 37.5657C20.7988 37.5657 22.0293 36.7815 22.0293 35.2132C22.0293 34.5376 21.7277 34.031 21.1245 33.6932C20.1835 33.1624 18.9771 32.7522 17.5053 32.4626C15.8646 32.0283 14.4893 31.4493 13.3795 30.7254C12.0524 29.8568 11.3889 28.4815 11.3889 26.5996C11.3889 24.7176 11.968 23.2217 13.1261 22.1118C14.2843 20.9778 15.8284 20.4108 17.7587 20.4108C18.9409 20.4108 20.1594 20.6882 21.4141 21.2432C21.8725 21.4362 22.2223 21.5327 22.4636 21.5327C22.7049 21.5327 22.91 21.4483 23.0789 21.2794C23.2478 21.1105 23.4529 20.7968 23.6941 20.3384H24.0922V25.8757H23.6579C22.4274 22.7391 20.5213 21.1708 17.9396 21.1708C16.8056 21.1708 15.9611 21.3759 15.4062 21.7861C14.8513 22.1721 14.5738 22.6667 14.5738 23.2699C14.5738 23.6318 14.6582 23.9214 14.8271 24.1385C14.996 24.3315 15.1287 24.4763 15.2252 24.5728C15.3218 24.6693 15.4786 24.7779 15.6957 24.8986C15.9129 24.9951 16.0939 25.0795 16.2386 25.1519C16.3834 25.2002 16.6005 25.2725 16.8901 25.369C17.2037 25.4656 17.4329 25.5259 17.5777 25.55C19.2184 25.9602 20.4007 26.3221 21.1245 26.6358C21.8484 26.9253 22.536 27.2872 23.1875 27.7215C24.5145 28.6384 25.178 30.1222 25.178 32.1731C25.178 34.1999 24.5748 35.744 23.3684 36.8057C22.162 37.8432 20.5093 38.3619 18.4101 38.3619C16.9142 38.3619 15.4665 38.0121 14.0671 37.3124C13.7776 37.1193 13.5484 37.0228 13.3795 37.0228C12.8486 37.0228 12.3299 37.4692 11.8232 38.3619H11.3889Z" fill="white"/>
</svg>
